<?xml version="1.0" encoding="UTF-8"?>
<svg xmlns="http://www.w3.org/2000/svg" version="1.1" viewBox="0 0 1064 227.5">
  <!-- Generator: Adobe Illustrator 28.7.7, SVG Export Plug-In . SVG Version: 1.2.0 Build 194)  -->
  <g>
    <g id="Layer_1">
      <path d="M491.1,10.9c21.9,53.5,43.5,106.4,65,159.2,2,0,4,.1,6.1.2,19.1-52.2,38.2-104.4,58.4-159.7,1.1,0,6.6-.5,15.9-1.3-30.3,73-59.3,143.1-88.3,213.1-1.9-.1-3.7-.3-5.6-.4-27.6-67.2-55.2-134.4-82.7-201.7-1.8-.3-3.6-.6-5.4-.9-28.1,67.4-56.2,134.8-84.3,202.3-1.9.3-3.8.6-5.6.9-28.5-69.6-57-139.1-86.9-212.1,13-.6,22.9-1,34.5-1.5,22.1,54.3,43.6,107.2,67.6,166.2,13-31.4,24.5-56.9,34.2-83,9.6-25.8,17.3-52.2,26.9-81.2h50.3Z"/>
      <path d="M700,8.2c28.5,69.7,56.9,139.4,86.6,212.2h-34.8c-21.8-53.4-43.4-106.4-65-159.5-2.1-.5-4.2-1.1-6.3-1.6-19.2,52.3-38.3,104.7-59,161-1,0-6.8.4-16,.9,30.4-73.2,59.3-142.9,88.2-212.6,2.1-.1,4.2-.3,6.3-.4Z"/>
    </g>
  </g>
</svg>