<?xml version="1.0" encoding="UTF-8"?>
<svg xmlns="http://www.w3.org/2000/svg" version="1.1" viewBox="0 0 1064 227.5">
  <!-- Generator: Adobe Illustrator 28.7.7, SVG Export Plug-In . SVG Version: 1.2.0 Build 194)  -->
  <g>
    <g id="Layer_1">
      <path d="M88.4,89.2c-10,28.2-20.1,56.4-30.1,84.7-1.2,0-2.4.1-3.6.2-13.7-39.6-27.4-79.2-41.6-120.3h19.4c9.9,28.9,19.8,57.7,29.7,86.4.8,0,1.7.1,2.5.2,10.1-28.4,20.3-56.8,30.4-85.3,1.1,0,2.1,0,3.2.1,9.8,28.2,19.6,56.4,29.3,84.6,1.1,0,2.3.2,3.4.3,8.8-28.4,17.6-56.8,26.6-86.2h8.4c-14.4,40.9-28.5,80.6-42.5,120.3-1.1,0-2.1,0-3.2,0-9.8-28.3-19.6-56.6-29.4-84.9-.9,0-1.8,0-2.7,0Z"/>
      <path d="M266.3,172.8V51.7c19.3,1.5,37.7,1.9,55.8,4.9,11.9,1.9,20.5,10,22,23.3,1.4,13.2-3.7,23.2-15,30-3.2,2-6.6,3.8-11.4,6.6,9.5,10.8,18,21.6,27.8,31.3,8.4,8.3,8.7,17.4,6.2,28.7-24.6-16.2-34.2-48.9-67.8-58.5v54.8h-17.6ZM284.3,112.7c17.4,5.5,28.5,2.7,36.2-8.6,6.7-9.8,7.3-26.5,1.2-35.1-7.4-10.4-21.4-13.8-37.4-8.5v52.2Z"/>
      <path d="M1052.1,176.6c-13.2-14.8-26.5-29.5-39.6-44.3-9.9-11.2-10.8-11.7-25.5-10.7v51.1h-18V53.9c21.2-1.1,42.4-4.2,62.3,5.1,19.1,8.9,21.6,34,5.1,47.4-4.5,3.7-9.8,6.5-15.9,10.4,11.7,13.3,23.1,26.3,34.3,39.1v19.3c-1,.5-1.9.9-2.9,1.4ZM987.3,112.4c15.6,5.7,26.4,3.6,34.6-6.6,8.3-10.3,9.4-27,2.5-36.8-7.1-10.1-20.7-13.5-37.2-8.8v52.3Z"/>
      <path d="M374.7,172.9h-6.2c0-15.8,0-31,0-46.1,0-14.5.5-28.9,0-43.4-.4-9.4-2.2-18.8-3.5-29.2h17.4c19.5,27.3,39.7,55.5,59.9,83.8.8-.2,1.5-.4,2.3-.6V54h6.7v119.2c-1.3.4-2.6.7-3.9,1.1-23.6-32.4-47.2-64.9-72.5-99.8v98.4Z"/>
      <path d="M670.6,71.6c-2.8,2.4-4.9,4.2-9.1,7.8-3.7-4.6-6.6-9.4-10.6-13-19.7-17.5-45.8-13.6-58.1,9.6-12.3,23.3-12.4,47.7.8,70.8,13.6,24,45.8,27.8,67.1,8.6,3-2.7,5.3-6.3,8.7-8.7-5.2,19.1-26.9,30.7-52.6,29.3-25.1-1.4-45.4-19.7-51-45.9-6.4-30.1,6.1-59.5,30.6-72,25.2-12.9,55.2-7.8,74.2,13.6Z"/>
      <path d="M196.1,115.6v55.1c18.5-2.3,35.9-4.4,54.4-6.7-.4,2.7-.8,5.7-1.2,9.1h-71.3V53.6h68.1c.8,2.6,1.8,5.6,2.9,9.3-18-2-34.9-3.8-52.9-5.8v51.1h40.4v7.4h-40.4Z"/>
      <path d="M958,173.2h-19.9c-5.1-12.3-10.2-24.4-15.5-37.2h-46.3c-3.2,11.6-6.5,23.7-10.1,36.9-2.4.2-5.5.4-10.9.8,17.1-41.4,33.4-81.1,49.8-120.8,1.1-.2,2.3-.5,3.4-.7,16.2,39.6,32.4,79.1,49.5,121ZM920.2,128.9c-6.8-16.4-13-31.5-20.4-49.6-7.7,18.7-13.8,33.6-20.4,49.6h40.8Z"/>
      <path d="M764.6,53.5c3.6.3,5.9.4,8.7.6-1.1,30.4-.8,60.1-3.5,89.6-2,22.2-17.8,32.5-42.9,32.2-23.5-.3-40.1-11.8-41.3-32.9-1.7-29.1-.4-58.4-.4-88.8h16.5c.3,4.8.9,9.7.9,14.7.2,22.5-.2,45,.5,67.5.7,21.4,11.9,32.9,30.7,33.1,19.3.2,31.8-11.8,32.2-33.3.4-22.9-.9-45.8-1.4-68.7,0-4.2,0-8.3,0-14Z"/>
      <path d="M483,135.8c-3.4,12.1-6.9,24.2-10.6,37.1h-10.5c16.9-40.9,33.4-80.6,49.9-120.4,1.1,0,2.2-.2,3.2-.2,16.2,39.7,32.4,79.3,49.2,120.6h-19.5c-5-11.8-10.3-24.2-15.8-37.1h-46ZM508,82.6c-1.2,0-2.4.1-3.7.2-5.9,15.1-11.7,30.2-18,46.4h39.9c-6.3-16.2-12.3-31.4-18.2-46.5Z"/>
      <path d="M794.1,173.2V54h16.9v116.9c15.2-3.1,28.2-5.7,42.5-8.5-.5,3.5-1.1,6.9-1.7,10.9h-57.8Z"/>
    </g>
  </g>
</svg>